<svg xmlns="http://www.w3.org/2000/svg" viewBox="0 0 884 630" width="884" height="630"><rect width="884" height="630" fill="#F0F0F0"/><ellipse cx="442" cy="542" rx="159" ry="14" fill="#B9B9B9" opacity="0.26"/><path d="M242 210 L642 210" stroke="#C2C2C2" stroke-width="5"/><path d="M262 212 C 252 275, 272 343, 262 443" fill="none" stroke="#D9D9D9" stroke-width="2.4"/><path d="M298 212 C 288 306, 308 374, 298 474" fill="none" stroke="#D9D9D9" stroke-width="2.4"/><path d="M334 212 C 324 334, 344 402, 334 502" fill="none" stroke="#D9D9D9" stroke-width="2.4"/><path d="M370 212 C 360 356, 380 424, 370 524" fill="none" stroke="#D9D9D9" stroke-width="2.4"/><path d="M406 212 C 396 371, 416 439, 406 539" fill="none" stroke="#D9D9D9" stroke-width="2.4"/><path d="M442 212 C 432 376, 452 444, 442 544" fill="none" stroke="#D9D9D9" stroke-width="2.4"/><path d="M478 212 C 468 371, 488 439, 478 539" fill="none" stroke="#D9D9D9" stroke-width="2.4"/><path d="M514 212 C 504 356, 524 424, 514 524" fill="none" stroke="#D9D9D9" stroke-width="2.4"/><path d="M550 212 C 540 334, 560 402, 550 502" fill="none" stroke="#D9D9D9" stroke-width="2.4"/><path d="M586 212 C 576 306, 596 374, 586 474" fill="none" stroke="#D9D9D9" stroke-width="2.4"/><path d="M622 212 C 612 275, 632 343, 622 443" fill="none" stroke="#D9D9D9" stroke-width="2.4"/><path d="M262 300 C 352 470, 532 470, 622 300" fill="none" stroke="#C2C2C2" stroke-width="4"/></svg>