<svg xmlns="http://www.w3.org/2000/svg" viewBox="0 0 720 480" width="720" height="480"><rect width="720" height="480" fill="#F0F0F0"/><circle cx="36.0" cy="40.0" r="26.01" fill="#D9D9D9"/><circle cx="108.0" cy="40.0" r="26.01" fill="#D9D9D9"/><circle cx="180.0" cy="40.0" r="26.01" fill="#D9D9D9"/><circle cx="252.0" cy="40.0" r="26.01" fill="#D9D9D9"/><circle cx="324.0" cy="40.0" r="26.01" fill="#9A9A9A"/><circle cx="396.0" cy="40.0" r="26.01" fill="#D9D9D9"/><circle cx="468.0" cy="40.0" r="26.01" fill="#D9D9D9"/><circle cx="540.0" cy="40.0" r="26.01" fill="#D9D9D9"/><circle cx="612.0" cy="40.0" r="26.01" fill="#D9D9D9"/><circle cx="684.0" cy="40.0" r="26.01" fill="#D9D9D9"/><circle cx="36.0" cy="120.0" r="26.01" fill="#D9D9D9"/><circle cx="108.0" cy="120.0" r="9.40" fill="#D9D9D9"/><circle cx="180.0" cy="120.0" r="12.17" fill="#D9D9D9"/><circle cx="252.0" cy="120.0" r="14.94" fill="#9A9A9A"/><circle cx="324.0" cy="120.0" r="17.71" fill="#D9D9D9"/><circle cx="396.0" cy="120.0" r="20.48" fill="#D9D9D9"/><circle cx="468.0" cy="120.0" r="23.25" fill="#D9D9D9"/><circle cx="540.0" cy="120.0" r="26.01" fill="#D9D9D9"/><circle cx="612.0" cy="120.0" r="9.40" fill="#D9D9D9"/><circle cx="684.0" cy="120.0" r="12.17" fill="#D9D9D9"/><circle cx="36.0" cy="200.0" r="26.01" fill="#D9D9D9"/><circle cx="108.0" cy="200.0" r="12.17" fill="#D9D9D9"/><circle cx="180.0" cy="200.0" r="17.71" fill="#9A9A9A"/><circle cx="252.0" cy="200.0" r="23.25" fill="#D9D9D9"/><circle cx="324.0" cy="200.0" r="9.40" fill="#D9D9D9"/><circle cx="396.0" cy="200.0" r="14.94" fill="#D9D9D9"/><circle cx="468.0" cy="200.0" r="20.48" fill="#D9D9D9"/><circle cx="540.0" cy="200.0" r="26.01" fill="#D9D9D9"/><circle cx="612.0" cy="200.0" r="12.17" fill="#D9D9D9"/><circle cx="684.0" cy="200.0" r="17.71" fill="#D9D9D9"/><circle cx="36.0" cy="280.0" r="26.01" fill="#D9D9D9"/><circle cx="108.0" cy="280.0" r="14.94" fill="#9A9A9A"/><circle cx="180.0" cy="280.0" r="23.25" fill="#D9D9D9"/><circle cx="252.0" cy="280.0" r="12.17" fill="#D9D9D9"/><circle cx="324.0" cy="280.0" r="20.48" fill="#D9D9D9"/><circle cx="396.0" cy="280.0" r="9.40" fill="#D9D9D9"/><circle cx="468.0" cy="280.0" r="17.71" fill="#D9D9D9"/><circle cx="540.0" cy="280.0" r="26.01" fill="#D9D9D9"/><circle cx="612.0" cy="280.0" r="14.94" fill="#D9D9D9"/><circle cx="684.0" cy="280.0" r="23.25" fill="#D9D9D9"/><circle cx="36.0" cy="360.0" r="26.01" fill="#9A9A9A"/><circle cx="108.0" cy="360.0" r="17.71" fill="#D9D9D9"/><circle cx="180.0" cy="360.0" r="9.40" fill="#D9D9D9"/><circle cx="252.0" cy="360.0" r="20.48" fill="#D9D9D9"/><circle cx="324.0" cy="360.0" r="12.17" fill="#D9D9D9"/><circle cx="396.0" cy="360.0" r="23.25" fill="#D9D9D9"/><circle cx="468.0" cy="360.0" r="14.94" fill="#D9D9D9"/><circle cx="540.0" cy="360.0" r="26.01" fill="#D9D9D9"/><circle cx="612.0" cy="360.0" r="17.71" fill="#D9D9D9"/><circle cx="684.0" cy="360.0" r="9.40" fill="#9A9A9A"/><circle cx="36.0" cy="440.0" r="26.01" fill="#D9D9D9"/><circle cx="108.0" cy="440.0" r="20.48" fill="#D9D9D9"/><circle cx="180.0" cy="440.0" r="14.94" fill="#D9D9D9"/><circle cx="252.0" cy="440.0" r="9.40" fill="#D9D9D9"/><circle cx="324.0" cy="440.0" r="23.25" fill="#D9D9D9"/><circle cx="396.0" cy="440.0" r="17.71" fill="#D9D9D9"/><circle cx="468.0" cy="440.0" r="12.17" fill="#D9D9D9"/><circle cx="540.0" cy="440.0" r="26.01" fill="#D9D9D9"/><circle cx="612.0" cy="440.0" r="20.48" fill="#9A9A9A"/><circle cx="684.0" cy="440.0" r="14.94" fill="#D9D9D9"/></svg>